<svg width="57" height="511" viewBox="0 0 57 511" fill="none" xmlns="http://www.w3.org/2000/svg">
<path d="M-389.591 0.394742C-443.452 -1.33151 -475.316 35.6128 -499.572 83.7334C-543.833 171.537 -558.967 276.494 -544.418 365.852C-529.868 455.21 -477.047 517.336 -424.364 554.563C-344.508 610.991 -323.59 612.6 -245.5 607.018C-188.503 602.944 -157.808 595.565 -91.8058 561.844C-25.8039 528.123 78.4386 465.113 52.4221 374.546C31.8276 302.855 -110.879 282.313 -110.879 282.313C-110.879 282.313 -177.389 274.713 -217.359 243.749C-258.729 211.701 -284.937 128.037 -284.937 128.037C-284.937 128.037 -325.164 2.45965 -389.591 0.394742Z" fill="#08D3BB"/>
</svg>
