<svg width="17" height="20" viewBox="0 0 17 20" fill="none" xmlns="http://www.w3.org/2000/svg">
<path d="M7.58875 1L3.275 8.24167M2.75 1H14.3C15.2625 1 16.05 1.825 16.05 2.83333V4.85C16.05 5.58333 15.6125 6.5 15.175 6.95833L11.4125 10.4417C10.8875 10.9 10.5375 11.8167 10.5375 12.55V16.4917C10.5375 17.0417 10.1875 17.775 9.75 18.05L8.525 18.875C7.3875 19.6083 5.8125 18.7833 5.8125 17.3167V12.4583C5.8125 11.8167 5.4625 10.9917 5.1125 10.5333L1.7875 6.86667C1.35 6.40833 1 5.58333 1 5.03333V2.925C1 1.825 1.7875 1 2.75 1Z" stroke="#989898" stroke-width="1.5" stroke-miterlimit="10" stroke-linecap="round" stroke-linejoin="round"/>
</svg>
