<svg width="33" height="33" viewBox="0 0 33 33" fill="none" xmlns="http://www.w3.org/2000/svg">
<path d="M0 8C0 3.58172 3.58172 0 8 0H25C29.4183 0 33 3.58172 33 8V25C33 29.4183 29.4183 33 25 33H8C3.58172 33 0 29.4183 0 25V8Z" fill="#F6F6F6"/>
<path fill-rule="evenodd" clip-rule="evenodd" d="M21.3934 23.8094C19.8041 23.8094 18.3322 23.3063 17.1285 22.4506C17.5848 21.9636 17.9827 21.4212 18.3108 20.8345H25.4652C25.0793 21.7499 24.5653 22.5977 23.9459 23.3554C23.1506 23.649 22.2907 23.8094 21.3934 23.8094ZM25.4941 12.8768H18.3492C17.9155 12.0835 17.3552 11.3695 16.6953 10.7618C17.9707 9.70531 19.6079 9.07031 21.3934 9.07031C21.9304 9.07031 22.454 9.12775 22.9584 9.23681C24.0471 10.2434 24.9185 11.483 25.4941 12.8768Z" fill="white"/>
<path d="M21.2572 9.62658C21.8506 9.62658 22.427 9.70028 22.9778 9.83909C20.6865 7.61017 17.3738 6.51689 14.0102 7.20356C12.8972 7.43079 11.8652 7.83524 10.9375 8.38163C11.0999 8.36255 11.2697 8.34807 11.444 8.33768C12.2229 8.29125 13.1125 8.32541 13.8724 8.40826C14.5496 8.4821 15.5576 8.65178 16.4642 8.93642C16.9173 9.07866 17.3532 9.25211 17.712 9.46139C18.0455 9.6559 18.3357 9.89473 18.4977 10.1897C19.3456 9.82714 20.2781 9.62658 21.2572 9.62658Z" fill="#FFE24D"/>
<path d="M18.0769 10.3883C17.9699 10.2111 17.77 10.0347 17.4812 9.8663C17.1636 9.68106 16.7636 9.51997 16.3287 9.38341C15.4593 9.11046 14.4828 8.94553 13.8258 8.8739C13.0874 8.79338 12.2242 8.76061 11.4756 8.80523C11.1011 8.82755 10.7607 8.86894 10.4815 8.9314C10.1958 8.99528 9.99986 9.07579 9.89235 9.16017L9.85991 9.11858C8.41399 10.2501 7.30636 11.7607 6.65625 13.4698C6.9396 13.3899 7.27673 13.3379 7.64825 13.3093C8.39368 13.2519 9.30153 13.2866 10.242 13.3944C11.1833 13.5022 12.1498 13.6888 12.9531 13.9484C13.3547 14.0782 13.7209 14.228 14.0247 14.3985C14.1952 14.4942 14.3511 14.5993 14.4837 14.7149C15.0426 12.8247 16.3585 11.2634 18.0769 10.3883Z" fill="#FFD705"/>
<path d="M14.3466 15.2495C14.2397 15.1036 14.0565 14.9536 13.7955 14.8071C13.5271 14.6564 13.1917 14.5178 12.8087 14.3941C12.0429 14.1465 11.1082 13.965 10.1878 13.8595C9.26641 13.7539 8.38982 13.7217 7.68285 13.7761C7.32919 13.8034 7.02396 13.8519 6.77944 13.921C6.64991 13.9577 6.54292 13.9986 6.45686 14.0419C5.96654 15.6089 5.85337 17.3189 6.2029 19.0423C6.26889 19.3677 6.34989 19.6862 6.44501 19.9972C6.46433 20.0045 6.48595 20.0123 6.50994 20.0206C6.64964 20.0689 6.86954 20.1329 7.17915 20.1893C7.79827 20.3023 8.77743 20.3856 10.1927 20.2535C11.6241 20.1199 12.6392 19.9625 13.3501 19.7518C14.0025 19.5584 14.3666 19.3293 14.5683 19.0635C14.3223 18.3392 14.1888 17.5622 14.1888 16.7539C14.1888 16.2378 14.2432 15.7345 14.3466 15.2495Z" fill="#F5BF00"/>
<path d="M14.7492 19.5547C14.4567 19.8299 14.0374 20.0371 13.4769 20.2033C12.7202 20.4276 11.6673 20.5881 10.2304 20.7222C8.77721 20.8578 7.75513 20.7738 7.09013 20.6525C6.909 20.6194 6.75445 20.5836 6.625 20.5488C7.41736 22.6901 8.89455 24.4376 10.746 25.5849C11.9751 25.7021 13.001 25.3177 14.2449 24.7278C15.5666 24.101 16.5207 23.3805 16.9874 22.4402C16.013 21.6958 15.2359 20.7027 14.7492 19.5547Z" fill="#CB9200"/>
<path d="M17.376 22.7109C16.8288 23.7595 15.7732 24.5196 14.4483 25.1478C13.473 25.6104 12.5827 25.9725 11.6016 26.0537C13.5176 26.9978 15.7482 27.3367 18.0017 26.8767C20.3345 26.4004 22.3113 25.1457 23.7178 23.4373C22.9518 23.7237 22.1231 23.8803 21.2583 23.8803C19.8245 23.8803 18.4904 23.4501 17.376 22.7109Z" fill="#9C5E00"/>
</svg>
